<?xml version="1.0" encoding="UTF-8" standalone="no"?>
<svg
   xmlns:dc="http://purl.org/dc/elements/1.1/"
   xmlns:cc="http://creativecommons.org/ns#"
   xmlns:rdf="http://www.w3.org/1999/02/22-rdf-syntax-ns#"
   xmlns:svg="http://www.w3.org/2000/svg"
   xmlns="http://www.w3.org/2000/svg"
   viewBox="0 0 871.53333 129.30667"
   height="129.30667"
   width="871.53333"
   xml:space="preserve"
   id="svg2"
   version="1.1"><metadata
     id="metadata8"><rdf:RDF><cc:Work
         rdf:about=""><dc:format>image/svg+xml</dc:format><dc:type
           rdf:resource="http://purl.org/dc/dcmitype/StillImage" /><dc:title></dc:title></cc:Work></rdf:RDF></metadata><defs
     id="defs6" /><g
     transform="matrix(1.3333333,0,0,-1.3333333,0,129.30667)"
     id="g10"><g
       transform="scale(0.1)"
       id="g12"><path
         id="path14"
         style="fill:#312d2c;fill-opacity:1;fill-rule:nonzero;stroke:none"
         d="m 410.641,547.52 c 0,50.257 -26.68,75.402 -80.039,75.402 H 257.52 V 472.117 h 73.082 c 53.359,0 80.039,25.125 80.039,75.403 z M 257.52,269.121 V 8.12109 H 0 V 829.398 h 359.602 c 100.519,0 177.664,-25.515 231.418,-76.554 53.742,-51.043 80.621,-119.485 80.621,-205.324 0,-51.817 -11.996,-98.797 -35.957,-140.938 C 611.703,364.418 576.324,330.98 529.543,306.238 482.742,281.48 426.105,269.121 359.602,269.121 H 257.52" /><path
         id="path16"
         style="fill:#312d2c;fill-opacity:1;fill-rule:nonzero;stroke:none"
         d="M 1010.35,662.359 V 8.12109 H 752.828 V 662.359 Z m -235.483,270.86 c 27.063,24.359 63.024,36.543 107.883,36.543 44.082,0 79.645,-12.184 106.719,-36.543 27.061,-24.356 40.601,-55.098 40.601,-92.219 0,-36.355 -13.54,-66.516 -40.601,-90.477 -27.074,-23.98 -62.637,-35.96 -106.719,-35.96 -44.859,0 -80.82,11.98 -107.883,35.96 -27.078,23.961 -40.597,54.122 -40.597,90.477 0,37.121 13.519,67.863 40.597,92.219" /><path
         id="path18"
         style="fill:#312d2c;fill-opacity:1;fill-rule:nonzero;stroke:none"
         d="M 1555.54,8.12109 1445.34,155.441 1362.98,8.12109 H 1079.94 L 1299.18,352.641 1068.34,662.359 h 287.68 l 110.2,-148.476 83.52,148.476 h 283.04 L 1606.58,325.961 1843.22,8.12109 h -287.68" /><path
         id="path20"
         style="fill:#312d2c;fill-opacity:1;fill-rule:nonzero;stroke:none"
         d="m 2227.18,395.563 c 0,24.742 -6.97,43.097 -20.88,55.097 -13.92,11.981 -31.32,17.977 -52.2,17.977 -47.18,0 -74.24,-24.356 -81.2,-73.074 z M 2482.38,290 h -411.8 c 2.32,-32.48 9.66,-54.723 22.04,-66.699 12.36,-11.996 28.6,-17.977 48.72,-17.977 27.83,0 47.94,12.758 60.32,38.274 h 272.6 c -9.28,-46.395 -28.82,-87.977 -58.58,-124.696 C 2385.9,82.1641 2348.4,53.1602 2303.15,31.8984 2257.92,10.6211 2208.22,0 2154.1,0 c -64.96,0 -122.78,13.5195 -173.42,40.6016 -50.67,27.0586 -90.1,65.9184 -118.32,116.5784 -28.24,50.644 -42.35,110.004 -42.35,178.058 0,68.043 14.11,127.403 42.35,178.063 28.22,50.64 67.65,89.504 118.32,116.578 50.64,27.059 108.46,40.601 173.42,40.601 64.96,0 122.76,-13.339 173.41,-40.019 50.65,-26.68 90.09,-64.777 118.32,-114.262 28.23,-49.5 42.35,-107.879 42.35,-175.16 0,-16.238 -1.94,-33.262 -5.8,-51.039" /><path
         id="path22"
         style="fill:#312d2c;fill-opacity:1;fill-rule:nonzero;stroke:none"
         d="M 2826.89,866.52 V 8.12109 H 2569.37 V 866.52 h 257.52" /><path
         id="path24"
         style="fill:#312d2c;fill-opacity:1;fill-rule:nonzero;stroke:none"
         d="m 3413.26,606.098 c 52.97,-42.918 86.42,-99.575 100.35,-169.938 h -240.12 c -10.06,37.121 -36.37,55.68 -78.89,55.68 -23.97,0 -35.96,-9.281 -35.96,-27.84 0,-13.16 8.7,-23.199 26.1,-30.16 17.4,-6.961 45.04,-14.317 82.95,-22.039 49.47,-9.281 91.82,-20.301 127.01,-33.063 35.18,-12.758 65.55,-33.457 91.06,-62.058 25.52,-28.617 38.28,-67.68 38.28,-117.157 0,-38.683 -10.84,-73.082 -32.48,-103.2417 C 3469.9,66.1172 3438.2,42.5195 3396.44,25.5234 3354.68,8.5 3305.56,0 3249.12,0 3154.77,0 3079.76,20.1016 3024.08,60.3242 2968.4,100.523 2933.98,158.52 2920.84,234.32 h 247.08 c 4.64,-37.898 31.32,-56.84 80.04,-56.84 26.29,0 39.44,9.278 39.44,27.844 0,14.676 -8.89,25.516 -26.68,32.473 -17.8,6.965 -46.4,13.922 -85.84,20.887 -50.28,10.039 -91.84,20.879 -124.7,32.476 -32.88,11.598 -61.67,31.32 -86.42,59.164 -24.76,27.836 -37.12,66.117 -37.12,114.836 0,39.442 10.44,74.621 31.32,105.559 20.88,30.922 51.81,55.281 92.8,73.082 40.98,17.781 90.86,26.679 149.64,26.679 88.93,0 159.89,-21.46 212.86,-64.382" /><path
         id="path26"
         style="fill:#312d2c;fill-opacity:1;fill-rule:nonzero;stroke:none"
         d="M 4021.67,227.359 V 8.12109 h -97.43 c -179.42,0 -269.12,89.32031 -269.12,267.95691 v 171.68 h -81.2 v 214.601 h 81.2 v 157.762 h 257.52 V 662.359 h 106.72 V 447.758 H 3912.64 V 271.441 c 0,-15.48 3.66,-26.679 11.02,-33.644 7.34,-6.957 19.52,-10.438 36.54,-10.438 h 61.47" /><path
         id="path28"
         style="fill:#312d2c;fill-opacity:1;fill-rule:nonzero;stroke:none"
         d="m 4370.83,419.34 c -16.24,-18.957 -24.36,-46.981 -24.36,-84.102 0,-37.117 7.92,-65.156 23.78,-84.101 15.84,-18.953 36.14,-28.418 60.9,-28.418 23.96,0 44.08,9.465 60.32,28.418 16.24,18.945 24.36,46.984 24.36,84.101 0,37.121 -8.12,65.145 -24.36,84.102 -16.24,18.941 -36.36,28.418 -60.32,28.418 -23.98,0 -44.07,-9.477 -60.32,-28.418 z m 237.8,210.539 c 52.59,-27.074 93.76,-65.938 123.54,-116.578 29.76,-50.66 44.66,-110.02 44.66,-178.063 0,-68.054 -14.9,-127.414 -44.66,-178.058 C 4702.39,106.52 4661.22,67.6602 4608.63,40.6016 4556.03,13.5195 4496.87,0 4431.15,0 c -65.73,0 -124.9,13.5195 -177.48,40.6016 -52.6,27.0586 -93.78,65.9184 -123.54,116.5784 -29.78,50.644 -44.66,110.004 -44.66,178.058 0,68.043 14.88,127.403 44.66,178.063 29.76,50.64 70.94,89.504 123.54,116.578 52.58,27.059 111.75,40.601 177.48,40.601 65.72,0 124.88,-13.542 177.48,-40.601" /><path
         id="path30"
         style="fill:#312d2c;fill-opacity:1;fill-rule:nonzero;stroke:none"
         d="m 5211.81,632.777 c 37.88,22.805 77.33,34.227 118.32,34.227 V 392.078 h -73.07 c -48.73,0 -84.51,-8.519 -107.31,-25.515 -22.81,-17.02 -34.22,-47.184 -34.22,-90.485 V 8.12109 H 4858.01 V 662.359 h 257.52 v -120.64 c 26.28,37.883 58.38,68.242 96.28,91.058" /><path
         id="path32"
         style="fill:#312d2c;fill-opacity:1;fill-rule:nonzero;stroke:none"
         d="m 6467.51,591.602 c 46,-50.278 69.03,-118.321 69.03,-204.161 V 8.12109 H 6280.17 V 354.961 c 0,27.836 -8.32,49.68 -24.94,65.535 -16.63,15.848 -38.86,23.785 -66.7,23.785 -28.61,0 -51.03,-7.937 -67.28,-23.785 -16.24,-15.855 -24.36,-37.699 -24.36,-65.535 V 8.12109 H 5840.53 V 354.961 c 0,27.836 -8.32,49.68 -24.94,65.535 -16.64,15.848 -38.86,23.785 -66.7,23.785 -28.61,0 -51.03,-7.937 -67.27,-23.785 -16.24,-15.855 -24.37,-37.699 -24.37,-65.535 V 8.12109 H 5399.73 V 662.359 h 257.52 v -88.16 c 18.57,27.844 43.89,50.266 75.99,67.281 32.08,17 69.77,25.524 113.09,25.524 47.16,0 88.93,-10.262 125.29,-30.742 36.33,-20.5 65.34,-49.305 87,-86.422 23.95,34.023 54.51,62.058 91.63,84.101 37.13,22.039 78.1,33.063 122.97,33.063 83.51,0 148.27,-25.145 194.29,-75.402" /></g></g></svg>