<svg width="493" height="529" viewBox="0 0 493 529" fill="none" xmlns="http://www.w3.org/2000/svg">
<g clip-path="url(#clip0_408_1482)">
<path d="M246.5 170.175L55.2701 325.042C32.7111 343.314 20.0405 368.084 20.0405 393.928V504.43C20.0405 526.153 52.4686 537.03 71.4354 521.67L375.978 275.038L246.5 170.175Z" fill="#0096D4"/>
<path d="M441.595 7.18952C460.562 -8.17012 492.99 2.70661 492.99 24.4291V134.932C492.99 160.765 480.32 185.545 457.761 203.818L396.018 253.822L266.541 148.959L441.595 7.18952Z" fill="#0096D4"/>
<path d="M51.3948 7.18659C32.428 -8.17305 0 2.70368 0 24.4262V134.929C0 160.773 12.6706 185.553 35.2296 203.815L96.9718 253.819L226.45 148.956L51.3948 7.18659Z" fill="#0063A6"/>
<path d="M421.555 521.67C440.522 537.03 472.95 526.153 472.95 504.431V393.928C472.95 368.095 460.279 343.315 437.72 325.042L375.978 275.038L246.5 379.901L421.555 521.681V521.67Z" fill="#0063A6"/>
<path d="M375.978 275.038L268.366 397.605L246.5 379.891L375.978 275.038Z" fill="#144986"/>
</g>
<defs>
<clipPath id="clip0_408_1482">
<rect width="493" height="528.859" fill="white"/>
</clipPath>
</defs>
</svg>
