<svg xmlns="http://www.w3.org/2000/svg" viewBox="0 0 512 512">
  <rect width="512" height="512" rx="112" fill="#0A0A0B"/>
  <svg x="40" y="196" width="432" height="150" viewBox="391.3 296.5 456.9 140.5" preserveAspectRatio="xMidYMid meet"><g fill="#F4F2EC"><polygon points="460.4 402.2 460.1 402.2 435.5 316.9 391.3 316.9 391.3 437 418.6 437 418.6 346.5 418.9 346.5 445.7 437 471.5 437 498.7 346.5 499 346.5 499 437 526.3 437 526.3 316.9 484.5 316.9 460.4 402.2"/><polygon points="646.1 409 645.5 409 627.7 316.9 592.9 316.9 575.6 409 575.1 409 560.4 316.9 528.5 316.9 552.9 437 593.7 437 609.3 346.7 609.9 346.7 625.1 437 666.3 437 690.7 316.9 660.5 316.9 646.1 409"/><path d="M787.7,344.3c-4.2-8.8-10.9-15.6-19.8-20.3-9-4.7-20.6-7.1-34.8-7.1h-40.2v120.1h45.5c5.2,0,10.5-.6,15.8-1.8,5.3-1.2,10.4-3.2,15.1-6,4.7-2.8,9-6.6,12.7-11.3,3.8-4.7,6.7-10.6,8.8-17.5,2.1-6.9,3.2-15.1,3.2-24.6s-2.1-22.8-6.4-31.6ZM759.8,399.1c-2.4,5-5.6,8.5-9.6,10.5-3.9,1.9-8.2,2.9-12.8,2.9h-15.1v-71h12c4.6,0,8.7.6,12.3,1.8,3.6,1.2,6.6,3.2,9.1,5.9,2.5,2.7,4.4,6.4,5.7,11,1.3,4.6,2,10.3,2,17.1s-1.2,16.7-3.6,21.7Z"/></g><polygon fill="#D9FF3F" points="848.2 316.9 829.1 316.9 829.1 296.5 811.1 296.5 811.1 316.9 791.9 316.9 791.9 334.4 811.1 334.4 811.1 354.9 829.1 354.9 829.1 334.4 848.2 334.4 848.2 316.9"/></svg>
</svg>