<?xml version="1.0" encoding="UTF-8"?>
<svg xmlns="http://www.w3.org/2000/svg" id="Layer_1" version="1.1" viewBox="0 0 512 125">
  <defs>
    <style>
      .st0 {
        fill: #fff;
      }
    </style>
  </defs>
  <path class="st0" d="M177.36,75.8c-8.44,0-13.09-5.38-11.93-13.09,1.31-7.86,7.71-13.09,16-13.09,4.36,0,8.29,2.04,10.62,5.09l8.15-6.69c-4.36-4.95-10.62-7.42-17.31-7.42-13.68,0-25.61,9.17-27.64,22.12-2.04,13.09,6.69,22.12,20.51,22.12,6.98,0,13.97-2.91,20.08-7.71l-5.82-6.69c-4.22,3.78-8.58,5.38-12.66,5.38M232.07,41.03s-1.75-.29-1.89-.29c-1.89-.29-3.93-.15-5.82,0-1.75.15-3.49.44-5.24,1.02-1.45.44-3.06,1.02-4.36,1.89l.29-2.04h-9.89l-6.69,42.19h9.89l3.93-24.59c.15-1.45.73-2.76,1.45-3.93s1.75-2.18,2.91-2.91c1.16-.87,2.33-1.45,3.64-1.89s2.62-.73,4.07-.87c1.89-.15,3.93,0,5.82.44h.15c.29,0,1.75-9.02,1.75-9.02M266.69,44.23c-2.76-2.33-6.98-3.64-11.93-3.64-12.37,0-23.57,8.88-25.75,21.97-2.04,13.09,6.55,21.97,18.48,21.97,5.38,0,9.89-.73,13.68-3.35l-.29,2.33h9.02l6.55-41.9h-9.31l-.44,2.62h0ZM264.66,62.56h0c-1.31,8-7.27,13.53-14.99,13.53s-12.37-5.82-11.06-13.68,7.57-13.39,15.28-13.39c7.71.15,11.93,5.53,10.77,13.53h0ZM322.13,41.61l1.89-11.93-11.35,8.15-.58,3.93h-12.8l1.31-8c.73-3.78,4.8-3.64,4.8-3.64h4.8l1.45-8.73h-6.84c-13.53,0-13.97,10.48-13.97,10.48l-.87,4.95-.73,4.95h-.87l-11.06,8.73h10.48l-6.69,42.63h10.18l6.69-42.78h12.8l-5.24,33.46h10.04l5.24-33.46h12.51l1.45-8.73h-12.66.02ZM349.04,62.71c2.04-12.95,13.82-22.12,27.64-22.12,6.69,0,12.95,2.62,17.31,7.42l-8.15,6.69c-2.33-3.06-6.26-5.09-10.62-5.09-8.29,0-14.7,5.38-16,13.09-1.16,7.71,3.49,13.09,11.93,13.09,4.07,0,8.44-1.6,12.66-5.38l5.82,6.69c-6.11,4.95-13.09,7.71-20.08,7.71-13.82,0-22.55-9.02-20.51-22.12M466.9,58.2l-3.93,25.61h-9.89l3.93-24.88c1.02-5.82-2.18-9.31-7.86-9.31-5.97,0-11.93,3.64-12.8,9.6l-3.93,24.59h-9.89l3.93-24.88c.87-5.67-2.47-9.17-7.86-9.31-5.53.29-11.93,3.78-12.8,9.6l-3.93,24.59h-9.89l6.69-42.19h9.89l-.29,2.04c3.35-2.04,7.13-2.91,11.93-3.06h.87c6.11,0,11.06,2.47,13.68,6.69,4.07-4.22,10.33-6.69,16.59-6.69,10.77,0,17.31,7.13,15.57,17.61M466.46,78.71l6.11-7.57c3.35,2.62,9.75,4.66,15.13,4.66,4.95,0,9.89-1.02,10.48-4.36.44-2.62-4.36-3.49-9.75-4.36-11.2-1.89-16.88-4.22-15.71-12.66,1.75-10.62,12.66-13.68,21.68-13.68,6.4,0,13.09,2.18,17.61,5.24l-6.11,7.57c-3.49-2.18-8-3.78-13.09-3.78-5.97,0-9.46,1.75-9.89,4.51-.29,1.89,1.31,2.62,8.29,3.78,10.18,1.75,18.62,3.35,17.02,13.09-1.31,8.88-10.33,13.82-22.12,13.82-6.55-.15-14.99-2.47-19.64-6.26M111.3,0H13.09C5.82,0,0,5.82,0,13.09v98.21c0,7.27,5.82,13.09,13.09,13.09h98.21c7.13,0,13.09-5.82,13.09-13.09V13.09c0-7.27-5.82-13.09-13.09-13.09M61.98,75.8c4.07,0,8.44-1.6,12.66-5.38l5.82,6.69c-6.11,4.95-13.09,7.71-20.08,7.71-13.82,0-22.55-9.17-20.51-22.12s13.82-22.12,27.64-22.12c6.69,0,12.95,2.62,17.31,7.42l-8.15,6.69c-2.33-3.06-6.26-5.09-10.62-5.09-8.29,0-14.7,5.38-16,13.09-1.16,7.71,3.49,13.09,11.93,13.09"></path>
</svg>
