<svg xmlns="http://www.w3.org/2000/svg" width="165" height="38" viewBox="0 0 165 38" fill="none"><path d="M7.52873 26.1478H7.13248V28.4583H0V9.53674e-06H7.18909V11.0452H7.58534C8.8873 9.24192 10.8119 8.28391 13.3593 8.28391C18.5105 8.28391 22.0767 12.3413 22.0767 18.5965C22.0767 24.9081 18.5671 28.9091 13.3026 28.9091C10.6987 28.9655 8.83069 27.9511 7.52873 26.1478ZM14.831 18.5965C14.831 16.117 13.1894 14.2573 10.8685 14.2573C8.54766 14.2573 6.90606 16.117 6.90606 18.5965C6.90606 21.0761 8.60427 22.9357 10.8685 22.9357C13.1894 22.9921 14.831 21.0761 14.831 18.5965Z" fill="#0A1DC9"></path><path d="M44.0955 28.4582H36.9064V25.5842H36.5102C34.9252 27.8947 33.2836 28.9654 30.9627 28.9654C26.887 28.9654 24 25.6969 24 21.1323V8.79099H31.1891V19.7235C31.1891 21.6395 32.2646 22.992 33.9628 22.992C35.6611 22.992 36.963 21.6395 36.963 19.6108V8.79099H44.1521V28.4582H44.0955Z" fill="#0A1DC9"></path><path d="M76.9282 18.5396C76.9282 12.2844 81.5134 8.2833 88.0798 8.2833C94.5896 8.2833 98.8917 12.3407 98.8917 18.5959C98.8917 19.1594 98.8351 20.1738 98.7785 20.5683H84.3437C84.7966 22.7097 86.2684 24.0622 88.4194 24.0622C90.1177 24.0622 91.363 23.1605 91.9857 21.9208L98.1558 23.0478C97.1369 26.7671 93.1178 29.0212 88.0232 29.0212C81.4568 28.9649 76.9282 24.8511 76.9282 18.5396ZM91.646 16.7363C91.4762 14.7639 89.9478 13.186 87.91 13.186C85.9287 13.186 84.6268 14.5385 84.2305 16.7363H91.646Z" fill="#0A1DC9"></path><path d="M119.894 13.8624H117.347V8.79064H119.894V7.43817C119.894 2.70451 123.687 0.0559158 126.064 0.0559158C128.102 0.0559158 131.385 0.0559158 131.216 0.0559158V5.74758C130.65 5.63487 129.97 5.57852 129.404 5.57852C127.989 5.57852 127.083 6.36746 127.083 7.55087V8.847H130.367V13.9188H127.083V28.5142H119.894V13.8624Z" fill="#0A1DC9"></path><path d="M143.782 36.6859V31.1633C144.631 31.5014 145.933 31.7268 146.952 31.7268C149.16 31.7268 150.292 30.2616 150.802 28.7401L141.122 8.73473H148.877L153.349 19.6109H153.745L157.198 8.73473H164.557L157.028 29.36C154.991 34.8262 152.556 37.4185 148.424 37.4185C146.896 37.4185 144.914 37.1367 143.782 36.6859Z" fill="#0A1DC9"></path><path d="M59.6624 21.8091C58.9831 22.3726 58.134 22.7107 57.2283 22.7107C56.3226 22.7107 55.2471 22.3726 55.2471 20.682V13.8633H59.0964V8.79152H55.2471V1.57832H53.379C50.4921 1.57832 48.1712 3.8888 48.1712 6.7628V8.84787H45.7937V13.9197H48.1146V21.4146C48.1146 26.0919 51.1148 29.0223 55.983 29.0223C57.5114 29.0223 59.0964 28.6842 60.2285 28.1206L60.5115 27.9516V21.1328L59.6624 21.8091Z" fill="#0A1DC9"></path><path d="M75.0047 21.8091C74.3254 22.3726 73.4763 22.7107 72.5706 22.7107C71.6649 22.7107 70.5894 22.3726 70.5894 20.682V13.8633H74.4386V8.79152H70.5894V1.57832H68.7213C65.8344 1.57832 63.5135 3.8888 63.5135 6.7628V8.84787H61.136V13.9197H63.5135V21.4146C63.5135 26.0919 66.5136 29.0223 71.3819 29.0223C72.9102 29.0223 74.4952 28.6842 75.6274 28.1206L75.9104 27.9516V21.1328L75.0047 21.8091Z" fill="#0A1DC9"></path><path d="M132.856 -1.71661e-05H135.29C137.894 -1.71661e-05 140.045 2.08505 140.045 4.73364V28.4583H132.856V-1.71661e-05Z" fill="#0A1DC9"></path><path d="M100.986 8.73499H105.345C106.873 8.73499 108.175 9.97476 108.175 11.5526C109.024 9.58029 111.232 8.39687 113.213 8.39687C114.005 8.39687 114.798 8.56593 115.421 8.90405V15.272C114.288 14.7648 112.873 14.483 111.968 14.483C109.76 14.483 108.232 16.23 108.232 18.7658V28.5713H101.042V8.73499H100.986Z" fill="#0A1DC9"></path></svg>