<svg data-name="Layer 1" xmlns="http://www.w3.org/2000/svg" viewBox="0 0 487.52 60.73"><title>chromatix-logo</title><path d="M44.83,44.79a19.29,19.29,0,0,1-14.29,6.39,19.87,19.87,0,0,1-19.6-20.13,19.86,19.86,0,0,1,19.6-20.13A19,19,0,0,1,44,16.52l7.62-7.63a30.32,30.32,0,1,0,.15,42.88l0,0Z" transform="translate(0.06 0)"/><polygon points="98.12 0.34 98.12 25.04 71.52 25.04 71.52 0.24 60.72 0.24 60.72 60.44 71.52 60.44 71.52 35.84 98.12 35.84 98.12 60.54 108.92 60.54 108.92 0.34 98.12 0.34"/><path d="M158.33,20.28A20.26,20.26,0,0,0,138.88,0h-21V10.82h21a9,9,0,0,1,0,18h-21L118,29h-.11l27.69,31.53h12.73L142.21,40.1a20.23,20.23,0,0,0,16.15-19.82Z" transform="translate(0.06 0)"/><path d="M195.06,0a30.31,30.31,0,1,0,30.3,30.32v0A30.32,30.32,0,0,0,195.06,0Zm.19,51a19.87,19.87,0,0,1-19.6-20.13,19.61,19.61,0,1,1,39.2,0c0,11.1-8.78,20.16-19.59,20.2Z" transform="translate(0.06 0)"/><polygon points="287.32 0.34 276.72 11.74 260.92 28.94 244.62 11.54 233.92 0.14 233.82 0.14 233.82 16.04 233.82 60.44 244.62 60.44 244.62 27.04 260.92 43.74 276.72 27.24 276.72 60.54 287.52 60.54 287.52 16.04 287.52 0.34 287.32 0.34"/><polygon points="354.62 60.44 354.62 60.44 324.82 0.04 324.82 0.04 294.92 60.44 305.32 60.44 324.82 21.94 324.82 22.04 339.52 51.04 329.32 51.04 324.82 60.44 344.22 60.44 344.32 60.54 354.62 60.54 354.62 60.44" fill="#fdce08"/><polygon points="394.52 0.04 346.22 0.04 346.22 10.84 364.92 10.84 364.92 60.54 375.32 60.54 375.32 10.84 394.52 10.84 394.52 0.04"/><rect x="405.82" y="0.04" width="10.8" height="60.5"/><polygon points="487.52 0.04 474.62 0.04 457.72 21.94 440.82 0.04 428.02 0.04 451.22 30.34 428.02 60.44 441.12 60.44 457.72 38.74 474.42 60.44 487.52 60.44 464.22 30.34 487.52 0.04"/></svg>