<svg width="100" height="91" viewBox="0 0 100 91" fill="none" xmlns="http://www.w3.org/2000/svg">
<g clip-path="url(#clip0_1675_55)">
<path d="M80.6202 44.3366C79.9096 43.755 79.0698 43.4318 78.1654 43.4318C76.7442 43.4318 75.7106 43.9489 75 45.0476C74.354 46.1463 74.031 47.4389 74.031 49.0547C74.031 50.7997 74.354 52.157 75.0646 53.1911C75.7752 54.2251 76.7442 54.7422 78.1654 54.7422C79.522 54.7422 80.6201 54.2251 81.3307 53.1911C82.0413 52.157 82.4289 50.8643 82.4289 49.1839C82.3643 46.9865 81.7829 45.3707 80.6202 44.3366Z" fill="white"/>
<path d="M58.5271 43.4965C56.8475 43.4965 55.6847 44.272 54.9742 45.8878C54.6512 46.728 54.4574 47.8267 54.4574 49.0547C54.4574 50.1534 54.6512 51.1229 54.9742 51.9631C55.6201 53.5142 56.7829 54.2898 58.5271 54.2898C59.6899 54.2898 60.5943 53.8374 61.4341 52.9972C62.2093 52.157 62.5969 50.7351 62.5969 48.8608C62.5969 47.1158 62.2093 45.7585 61.4987 44.8537C60.7235 43.9489 59.7545 43.4965 58.5271 43.4965Z" fill="white"/>
<path d="M50 0C22.416 0 0 22.4268 0 50.0241C0 57.8445 1.80879 65.277 5.03876 71.934L78.7468 91C91.6021 81.9517 100.065 66.9574 100.065 50.0241C100 22.4268 77.6486 0 50 0ZM32.3643 62.6918H12.8553V60.9467H32.2997V62.6918H32.3643ZM46.6408 57.1982C45.2842 58.3615 43.1525 58.9432 40.2455 58.9432C37.3385 58.9432 35.1421 58.2969 33.7209 57.0689C32.2997 55.8409 31.6537 54.2898 31.6537 52.3509H36.5633C36.6925 53.1911 36.8863 53.8374 37.2093 54.2251C37.7907 54.8714 38.9535 55.1946 40.5685 55.1946C41.5375 55.1946 42.3127 55.0653 42.8295 54.7422C43.4109 54.4837 43.6692 54.0312 43.6692 53.4496C43.6692 52.8679 43.4108 52.4801 42.9587 52.2216C42.5065 51.9631 40.8269 51.446 37.8553 50.7351C35.7235 50.218 34.2377 49.5717 33.3979 48.7962C32.5581 48.0206 32.1059 46.9219 32.1059 45.4354C32.1059 43.6903 32.7519 42.2685 34.1085 40.9759C35.4651 39.7479 37.3385 39.1016 39.7933 39.1016C42.1189 39.1016 43.9922 39.554 45.478 40.5234C46.9638 41.4283 47.8036 43.044 47.9974 45.3061H43.1525C43.0879 44.6598 42.8941 44.2074 42.6357 43.8196C42.1189 43.1733 41.2145 42.8501 39.9225 42.8501C38.8889 42.8501 38.1137 43.044 37.6615 43.3672C37.2093 43.6903 37.0155 44.0781 37.0155 44.5305C37.0155 45.1122 37.2739 45.5 37.7261 45.7585C38.1783 46.017 39.9225 46.4695 42.8295 47.1158C44.7674 47.5682 46.2532 48.2791 47.2222 49.1839C48.1912 50.0888 48.6434 51.3168 48.6434 52.674C48.708 54.4837 48.062 56.0348 46.6408 57.1982ZM67.3773 57.3274C67.3773 59.7187 66.9897 61.5284 66.1499 62.7564C64.7287 64.8246 62.0801 65.9233 58.1395 65.9233C55.7493 65.9233 53.8114 65.4709 52.3256 64.5014C50.8398 63.5966 50 62.1747 49.8062 60.3004H55.1034C55.2326 60.8821 55.491 61.2699 55.7494 61.5284C56.2661 61.9808 57.1705 62.1747 58.3979 62.1747C60.1421 62.1747 61.3049 61.593 61.8863 60.4297C62.2739 59.6541 62.4677 58.4261 62.4677 56.6165V55.3885C62.0155 56.1641 61.4987 56.8104 60.9819 57.1982C60.0129 57.9091 58.7855 58.2969 57.2351 58.2969C54.845 58.2969 52.907 57.4567 51.4858 55.7763C50.0646 54.0959 49.354 51.8338 49.354 48.9254C49.354 46.1463 50.0646 43.8196 51.4212 41.9453C52.7778 40.071 54.7158 39.1016 57.2997 39.1016C58.2041 39.1016 59.0439 39.2308 59.7545 39.554C60.9173 40.071 61.8863 40.9759 62.5969 42.2685V39.554H67.3127V57.3274H67.3773ZM82.4289 58.2969V55.7116C81.7183 56.8104 80.9431 57.6506 80.0388 58.103C79.1344 58.62 78.0362 58.8785 76.7442 58.8785C74.5478 58.8785 72.739 57.9737 71.2532 56.2287C69.7674 54.4837 69.0568 52.2216 69.0568 49.4425C69.0568 46.2756 69.7674 43.755 71.2532 41.9453C72.739 40.1357 74.677 39.2308 77.1318 39.2308C78.23 39.2308 79.2636 39.4893 80.168 40.0064C81.0723 40.5234 81.7829 41.1697 82.2997 42.0746V33.1555H87.2093V58.2969H82.4289Z" fill="white"/>
</g>
<defs>
<clipPath id="clip0_1675_55">
<rect width="100" height="91" fill="white"/>
</clipPath>
</defs>
</svg>
