<?xml version="1.0" encoding="UTF-8"?>
<svg id="Layer_2" data-name="Layer 2" xmlns="http://www.w3.org/2000/svg" viewBox="0 0 2071.85 336.14">
  <defs>
    <style>
      .cls-1 {
        fill: #161819;
        stroke-width: 0px;
      }
    </style>
  </defs>
  <g id="_Слой_1" data-name="Слой 1">
    <g>
      <path class="cls-1" d="m504.18,312.16c-26.1,0-48.06-5.83-65.88-17.5-17.82-11.67-30.37-27.54-37.64-47.62l44.42-25.97c10.29,26.86,30.49,40.28,60.61,40.28,14.55,0,25.22-2.63,32-7.9,6.78-5.27,10.16-11.92,10.16-19.95,0-9.28-4.14-16.5-12.42-21.65-8.28-5.14-23.09-10.73-44.42-16.75-11.8-3.51-21.78-7.02-29.93-10.54-8.16-3.51-16.32-8.22-24.47-14.12-8.16-5.89-14.37-13.36-18.63-22.4-4.27-9.03-6.4-19.57-6.4-31.62,0-23.84,8.47-42.85,25.41-57.03,16.94-14.17,37.33-21.27,61.17-21.27,21.33,0,40.09,5.21,56.28,15.62,16.19,10.41,28.8,24.91,37.83,43.48l-43.67,25.22c-10.54-22.58-27.36-33.88-50.44-33.88-10.79,0-19.26,2.45-25.41,7.34-6.15,4.9-9.22,11.24-9.22,19.01,0,8.28,3.45,15,10.35,20.14,6.9,5.14,20.14,10.73,39.71,16.75,8.03,2.51,14.12,4.46,18.26,5.83,4.14,1.38,9.79,3.52,16.94,6.4,7.15,2.89,12.67,5.59,16.56,8.09,3.89,2.51,8.34,5.9,13.37,10.17,5.02,4.27,8.84,8.66,11.48,13.18,2.64,4.51,4.9,9.98,6.78,16.37,1.88,6.4,2.82,13.36,2.82,20.89,0,24.34-8.85,43.66-26.54,57.97-17.69,14.3-40.72,21.46-69.08,21.46Z"/>
      <path class="cls-1" d="m616.36,306.89V32.09h48.56v274.8h-48.56Z"/>
      <path class="cls-1" d="m735.31,232.73c6.52,23.59,24.22,35.38,53.08,35.38,18.57,0,32.62-6.27,42.16-18.82l39.15,22.59c-18.58,26.86-45.92,40.28-82.07,40.28-31.12,0-56.09-9.41-74.91-28.23-18.82-18.82-28.23-42.54-28.23-71.15s9.28-52,27.86-70.96c18.57-18.95,42.41-28.42,71.52-28.42,27.6,0,50.38,9.54,68.33,28.61,17.94,19.08,26.91,42.67,26.91,70.77,0,6.28-.63,12.93-1.88,19.96h-141.92Zm-.75-37.64h95.99c-2.76-12.8-8.47-22.34-17.13-28.61-8.66-6.27-18.51-9.41-29.55-9.41-13.05,0-23.84,3.33-32.37,9.98-8.54,6.65-14.18,16-16.94,28.05Z"/>
      <path class="cls-1" d="m937.46,232.73c6.52,23.59,24.22,35.38,53.08,35.38,18.57,0,32.62-6.27,42.16-18.82l39.15,22.59c-18.58,26.86-45.92,40.28-82.07,40.28-31.12,0-56.09-9.41-74.91-28.23-18.82-18.82-28.23-42.54-28.23-71.15s9.28-52,27.86-70.96c18.57-18.95,42.41-28.42,71.52-28.42,27.6,0,50.38,9.54,68.33,28.61,17.94,19.08,26.92,42.67,26.92,70.77,0,6.28-.63,12.93-1.89,19.96h-141.92Zm-.75-37.64h95.99c-2.76-12.8-8.47-22.34-17.13-28.61-8.66-6.27-18.51-9.41-29.55-9.41-13.05,0-23.84,3.33-32.37,9.98-8.54,6.65-14.18,16-16.94,28.05Z"/>
      <path class="cls-1" d="m1273.63,306.89h-56.47l-68.52-85.52v85.52h-48.56V43.38h48.56v158.43l64.75-83.14h57.98l-75.66,92.98,77.92,95.23Z"/>
      <path class="cls-1" d="m1372.42,38.11c16.31,0,37.64,2.64,64,7.91v260.87h-48.56V81.03c-3.52-.25-8.66-.38-15.44-.38-26.6,0-39.9,12.04-39.9,36.13v1.89h31.25v46.68h-31.25v141.54h-48.56V116.78c0-52.45,29.48-78.67,88.46-78.67Z"/>
      <path class="cls-1" d="m1626.15,283.36c-19.33,19.2-42.92,28.8-70.77,28.8s-51.39-9.6-70.59-28.8c-19.2-19.2-28.8-42.73-28.8-70.59s9.6-51.38,28.8-70.58c19.2-19.2,42.73-28.8,70.59-28.8s51.44,9.6,70.77,28.8c19.32,19.2,28.98,42.73,28.98,70.58s-9.66,51.39-28.98,70.59Zm-107.1-33.32c9.66,9.79,21.77,14.69,36.33,14.69s26.73-4.9,36.51-14.69c9.79-9.78,14.69-22.21,14.69-37.27s-4.9-27.48-14.69-37.26c-9.78-9.79-21.96-14.69-36.51-14.69s-26.67,4.9-36.33,14.69c-9.66,9.78-14.49,22.21-14.49,37.26s4.83,27.48,14.49,37.27Z"/>
      <path class="cls-1" d="m1878.74,118.67h46.61l-54.89,188.22h-47.6l-35.61-114.06-35.6,114.06h-47.6l-55.32-188.22h51.35l32.22,115.57,34.28-115.57h45.96l34.28,115.97,31.91-115.97Z"/>
      <path class="cls-1" d="m1974.73,172.12c0,5.02,3.32,9.1,9.98,12.23,6.65,3.14,14.74,5.9,24.28,8.29,9.53,2.39,19.07,5.4,28.61,9.03,9.54,3.64,17.63,9.73,24.28,18.26,6.65,8.53,9.98,19.2,9.98,32,0,19.33-7.22,34.2-21.65,44.61-14.43,10.41-32.44,15.62-54.02,15.62-38.65,0-65-14.93-79.06-44.8l42.16-23.72c5.52,16.32,17.82,24.47,36.89,24.47,17.32,0,25.97-5.39,25.97-16.18,0-5.02-3.33-9.09-9.98-12.24-6.65-3.13-14.75-5.96-24.28-8.47-9.54-2.5-19.08-5.65-28.61-9.41-9.54-3.77-17.63-9.72-24.28-17.88-6.65-8.16-9.98-18.38-9.98-30.68,0-18.57,6.83-33.19,20.51-43.85,13.68-10.67,30.68-16,51.01-16,15.3,0,29.24,3.45,41.79,10.35,12.55,6.9,22.45,16.75,29.74,29.55l-41.41,22.59c-6.02-12.8-16.07-19.2-30.12-19.2-6.28,0-11.48,1.38-15.62,4.14-4.14,2.77-6.21,6.53-6.21,11.29Z"/>
      <g>
        <path class="cls-1" d="m282.14,161.45c-10.72-15.88-29.41-24.53-48.57-24.53H75.16c-2.87,0-4.5-3.27-2.78-5.57L170.89,0h-77.8L11.32,109.04c-14.4,19.2-15.25,45.16-1.45,65.6,10.72,15.88,29.41,24.53,48.57,24.53h158.41c2.87,0,4.5,3.27,2.78,5.57l-98.52,131.37.07.05h77.69l81.83-109.1c14.4-19.2,15.25-45.16,1.45-65.6Z"/>
        <path class="cls-1" d="m225.8,100.84l28.52-38.39C273.49,36.64,255.07,0,222.91,0h0l-74.91,100.84h77.8Z"/>
        <path class="cls-1" d="m69.45,336.14l74.91-100.84h-77.8l-28.52,38.39c-19.18,25.81-.75,62.45,31.41,62.45h0Z"/>
      </g>
    </g>
  </g>
</svg>