<svg width="59" height="97" viewBox="0 0 59 97" fill="none" xmlns="http://www.w3.org/2000/svg"><path d="M0 96.9V71.7h9v10.2c14.2-6.7 29.7-10.2 45.4-10.2h4.2v9h-4.2c-16.7 0-33.2 4.3-47.7 12.5L0 96.9z" fill="#00BF8C"/><path fill-rule="evenodd" clip-rule="evenodd" d="M31.3 28.3c3.2 1 6 2.7 8 5.4 1.7 2.4 2.5 5.1 2.4 8.2 0 5.1-1.7 9.1-5 12-3.3 2.9-8.1 4.3-14.3 4.3H0V0h19.6C26 0 30.8 1.4 34.1 4.2c3.2 2.9 4.8 6.7 4.8 11.5 0 3.1-.8 5.8-2.3 8-1.3 2-3.1 3.5-5.3 4.6zM19.7 9H9.8v15.1h9.9c6.1 0 9.2-2.5 9.2-7.5 0-2.4-.8-4.3-2.3-5.6-1.5-1.3-3.8-2-6.9-2zM9.8 49.2h12.5c6.3 0 9.5-2.7 9.6-7.9 0-2.6-.9-4.5-2.5-5.9-1.7-1.4-4-2.1-7-2.1H9.8v15.9zm37.8 8.2c1.2 1.2 2.7 1.8 4.6 1.8 1.9 0 3.5-.6 4.6-1.8 1.2-1.2 1.8-2.7 1.8-4.6 0-1.9-.6-3.4-1.8-4.6-1.2-1.2-2.7-1.8-4.6-1.8-1.9 0-3.4.6-4.6 1.8-1.2 1.2-1.8 2.7-1.8 4.6 0 1.9.6 3.4 1.8 4.6zM46.5.3l1.7 41.8h8.1L58 .3H46.5z" fill="#1B1C1D"/></svg>